{"title":"Red Dust.2004 [x264][AC3(5.1)]Multi_Sub.mkv","uid":5236427,"size":1695065174,"categoryP":"video","categoryS":"movies","magnet":"?xt=urn:btih:2dc0ce8408fa3900dbc93656ab455bbd91ae5d90&amp;dn=Red+Dust.2004+%5Bx264%5D%5BAC3%285.1%29%5DMulti_Sub.mkv&amp;tr=udp%3A%2F%2Ftracker.openbittorrent.com%3A80&amp;tr=udp%3A%2F%2Fopen.demonii.com%3A1337&amp;tr=udp%3A%2F%2Ftracker.coppersurfer.tk%3A6969&amp;tr=udp%3A%2F%2Fexodus.desync.com%3A6969","seeders":4,"leechers":0,"uploader":"Zen_Bud","files":-1,"time":1261561437,"description":"General\nComplete name                    : Red Dust.mkv\nFormat                           : Matroska\nFile size                        : 1.58 GiB\nDuration                         : 1h 46mn\nOverall bit rate                 : 2 129 Kbps\n\n\nVideo\nID                               : 1\nFormat                           : AVC\nCodec ID                         : V_MPEG4/ISO/AVC\nDuration                         : 1h 46mn\nBit rate                         : 1 639 Kbps\nNominal bit rate                 : 1 656 Kbps\nWidth                            : 718 pixels\nHeight                           : 416 pixels\nDisplay aspect ratio             : 2.454\nFrame rate                       : 25.000 fps\nResolution                       : 8 bits\nColorimetry                      : 4:2:0\nScan type                        : Progressive\nBits/(Pixel*Frame)               : 0.220\nStream size                      : 1.22 GiB (77%)\nWriting library                  : x264 core 79\n\n\nAudio\nID                               : 2\nFormat                           : AC-3\nFormat/Info                      : Audio Coding 3\nCodec ID                         : A_AC3\nDuration                         : 1h 46mn\nBit rate mode                    : Constant\nBit rate                         : 448 Kbps\nChannel(s)                       : 6 channels\nChannel positions                : Front: L C R, Surround: L R, LFE\nSampling rate                    : 48.0 KHz\nStream size                      : 340 MiB (21%)\n\nText #1                               \nLanguage                         : Danish\n\nText #2\nLanguage                         : Finnish\n\nText #3\nLanguage                         : Icelandic\n\nText #4\nLanguage                         : Norwegian\n\nText #5\nLanguage                         : Swedish\n\n\n\n","torrent":{"xt":"urn:btih:2dc0ce8408fa3900dbc93656ab455bbd91ae5d90","amp;dn":"Red+Dust.2004+%5Bx264%5D%5BAC3%285.1%29%5DMulti_Sub.mkv","amp;tr":["udp%3A%2F%2Ftracker.openbittorrent.com%3A80","udp%3A%2F%2Fopen.demonii.com%3A1337","udp%3A%2F%2Ftracker.coppersurfer.tk%3A6969","udp%3A%2F%2Fexodus.desync.com%3A6969"],"infoHash":"2dc0ce8408fa3900dbc93656ab455bbd91ae5d90","infoHashBuffer":{"type":"Buffer","data":[45,192,206,132,8,250,57,0,219,201,54,86,171,69,91,189,145,174,93,144]},"announce":[],"urlList":[]}}